<svg width="150" height="150" viewBox="0 0 150 150" fill="none" xmlns="http://www.w3.org/2000/svg">
  <path fill-rule="evenodd" clip-rule="evenodd"
    d="M15 135V15H135V135H15ZM0 12C0 5.37258 5.37258 0 12 0H138C144.627 0 150 5.37258 150 12V138C150 144.627 144.627 150 138 150H12C5.37258 150 0 144.627 0 138V12ZM34.5 35C30.3579 35 27 38.3579 27 42.5C27 46.6421 30.3579 50 34.5 50L115.5 50C119.642 50 123 46.6421 123 42.5C123 38.3579 119.642 35 115.5 35L34.5 35ZM27 74.5C27 70.3579 30.3579 67 34.5 67H55.5C59.6421 67 63 70.3579 63 74.5C63 78.6421 59.6421 82 55.5 82H34.5C30.3579 82 27 78.6421 27 74.5ZM34.5 99C30.3579 99 27 102.358 27 106.5C27 110.642 30.3579 114 34.5 114H55.5C59.6421 114 63 110.642 63 106.5C63 102.358 59.6421 99 55.5 99H34.5ZM75.3033 88.6967C78.2322 85.7678 82.981 85.7678 85.9099 88.6967L90.7519 93.5387L111.625 73.2302C114.593 70.3416 119.342 70.4067 122.23 73.3754C125.119 76.3442 125.054 81.0925 122.085 83.981L95.8358 109.521C92.867 112.409 88.1187 112.344 85.2302 109.375C84.9584 109.096 84.7127 108.801 84.4932 108.493L75.3033 99.3033C72.3744 96.3744 72.3744 91.6256 75.3033 88.6967Z"
    fill="#000000" />
  <path fill-rule="evenodd" clip-rule="evenodd"
    d="M15 135V15H135V135H15ZM0 12C0 5.37258 5.37258 0 12 0H138C144.627 0 150 5.37258 150 12V138C150 144.627 144.627 150 138 150H12C5.37258 150 0 144.627 0 138V12ZM34.5 35C30.3579 35 27 38.3579 27 42.5C27 46.6421 30.3579 50 34.5 50L115.5 50C119.642 50 123 46.6421 123 42.5C123 38.3579 119.642 35 115.5 35L34.5 35ZM27 74.5C27 70.3579 30.3579 67 34.5 67H55.5C59.6421 67 63 70.3579 63 74.5C63 78.6421 59.6421 82 55.5 82H34.5C30.3579 82 27 78.6421 27 74.5ZM34.5 99C30.3579 99 27 102.358 27 106.5C27 110.642 30.3579 114 34.5 114H55.5C59.6421 114 63 110.642 63 106.5C63 102.358 59.6421 99 55.5 99H34.5ZM75.3033 88.6967C78.2322 85.7678 82.981 85.7678 85.9099 88.6967L90.7519 93.5387L111.625 73.2302C114.593 70.3416 119.342 70.4067 122.23 73.3754C125.119 76.3442 125.054 81.0925 122.085 83.981L95.8358 109.521C92.867 112.409 88.1187 112.344 85.2302 109.375C84.9584 109.096 84.7127 108.801 84.4932 108.493L75.3033 99.3033C72.3744 96.3744 72.3744 91.6256 75.3033 88.6967Z"
    fill="#000000" />
  <path fill-rule="evenodd" clip-rule="evenodd"
    d="M15 135V15H135V135H15ZM0 12C0 5.37258 5.37258 0 12 0H138C144.627 0 150 5.37258 150 12V138C150 144.627 144.627 150 138 150H12C5.37258 150 0 144.627 0 138V12ZM34.5 35C30.3579 35 27 38.3579 27 42.5C27 46.6421 30.3579 50 34.5 50L115.5 50C119.642 50 123 46.6421 123 42.5C123 38.3579 119.642 35 115.5 35L34.5 35ZM27 74.5C27 70.3579 30.3579 67 34.5 67H55.5C59.6421 67 63 70.3579 63 74.5C63 78.6421 59.6421 82 55.5 82H34.5C30.3579 82 27 78.6421 27 74.5ZM34.5 99C30.3579 99 27 102.358 27 106.5C27 110.642 30.3579 114 34.5 114H55.5C59.6421 114 63 110.642 63 106.5C63 102.358 59.6421 99 55.5 99H34.5ZM75.3033 88.6967C78.2322 85.7678 82.981 85.7678 85.9099 88.6967L90.7519 93.5387L111.625 73.2302C114.593 70.3416 119.342 70.4067 122.23 73.3754C125.119 76.3442 125.054 81.0925 122.085 83.981L95.8358 109.521C92.867 112.409 88.1187 112.344 85.2302 109.375C84.9584 109.096 84.7127 108.801 84.4932 108.493L75.3033 99.3033C72.3744 96.3744 72.3744 91.6256 75.3033 88.6967Z"
    fill="#000000" />
</svg>