<svg width="212" height="210" fill="none" xmlns="http://www.w3.org/2000/svg"><path d="M187.036 179.429c-4.31 4.483-8.388 7.373-11.61 9.657-37.872 26.844-82.685 19.019-92.21 17.108-14.063-2.821-41.249-8.276-60.904-31.11-29.735-34.545-25.105-88.97-2.04-124.896 4.219-6.572 26.505-43.046 71.8-48.895 27.413-3.54 59.367 3.6 82.508 22.752 48.573 40.202 45.116 121.418 12.456 155.384z" fill="url(#a)"/><path d="M106.917 200.668S148.272 96.194 209.709 84.781a1.721 1.721 0 0 1 2.03 1.776c-.621 12.888-8.491 81.09-104.822 114.111z" fill="#7D97F4"/><path opacity=".62" d="M198.671 101.727c-3.137 4.477-6.424 8.836-9.757 13.162-.832 1.082-1.682 2.15-2.523 3.226-.847 1.071-1.676 2.156-2.538 3.214l-2.576 3.184c-.863 1.058-1.707 2.131-2.591 3.172-1.755 2.091-3.494 4.197-5.263 6.276l-5.363 6.192c-3.638 4.072-7.274 8.147-11.024 12.118l-2.791 2.999c-.919 1.01-1.894 1.967-2.838 2.954l-5.696 5.891-5.844 5.746c-.976.955-1.942 1.921-2.938 2.857l-3.014 2.777c-2.013 1.847-4.006 3.717-6.053 5.526l-6.225 5.334-1.563 1.325c-.525.436-1.036.89-1.574 1.312l-3.215 2.541c-1.069.851-2.153 1.683-3.228 2.524a430.986 430.986 0 0 1-3.239 2.509.19.19 0 0 1-.239-.294l.005-.005a432.336 432.336 0 0 1 3.122-2.647c1.045-.878 2.081-1.764 3.132-2.632l3.145-2.614c1.037-.886 2.041-1.808 3.07-2.703l6.157-5.382 6.031-5.523 3.018-2.76c.505-.458.985-.942 1.479-1.412l1.479-1.411 5.917-5.649c3.848-3.864 7.761-7.668 11.477-11.663 1.877-1.979 3.776-3.938 5.589-5.977 1.828-2.024 3.673-4.034 5.488-6.07l5.381-6.166c1.776-2.071 3.521-4.168 5.283-6.25.887-1.037 1.735-2.106 2.601-3.159l2.586-3.172c.865-1.054 1.698-2.135 2.548-3.202.844-1.071 1.698-2.135 2.534-3.213 3.329-4.321 6.612-8.685 9.738-13.149l.002-.004a.19.19 0 0 1 .264-.046c.086.06.106.178.046.263v.001z" fill="#fff"/><g opacity=".79"><path d="M96.895 140.751S116.999 48.495 177.69.671a1.384 1.384 0 0 1 2.204.749c3.818 15.448 23.695 113.981-83 139.331z" fill="#91B3FA"/><path opacity=".62" d="M171.247 27.286c-.697 2.676-1.508 5.313-2.364 7.937a218.317 218.317 0 0 1-2.714 7.822 254.036 254.036 0 0 1-6.264 15.331c-.558 1.263-1.147 2.511-1.72 3.768-.576 1.254-1.199 2.487-1.796 3.732-.593 1.247-1.233 2.47-1.855 3.703l-.941 1.845-.974 1.828c-2.595 4.876-5.328 9.681-8.273 14.356-2.955 4.668-6.025 9.267-9.337 13.69-.41.556-.813 1.118-1.229 1.669l-1.271 1.636-1.271 1.637c-.426.544-.839 1.097-1.286 1.625l-2.639 3.195-.662.797-.687.776-1.373 1.552a161.386 161.386 0 0 1-24.253 22.497.164.164 0 0 1-.203-.259l.003-.003 3.201-2.61 1.603-1.301 1.551-1.362 3.098-2.727 2.996-2.839c.496-.477 1.006-.938 1.495-1.422l1.451-1.467c.962-.983 1.944-1.945 2.89-2.944 1.858-2.028 3.761-4.015 5.53-6.122l1.349-1.56.675-.78.65-.801 2.61-3.194c.443-.526.852-1.079 1.274-1.622l1.259-1.634 1.259-1.633c.413-.551.811-1.111 1.217-1.666 3.281-4.415 6.321-9.005 9.245-13.663 2.94-4.65 5.687-9.42 8.288-14.269l.977-1.817.945-1.835c.624-1.226 1.267-2.442 1.862-3.683a330.42 330.42 0 0 0 3.561-7.447 254.941 254.941 0 0 0 6.421-15.212 217.49 217.49 0 0 0 2.853-7.75c.454-1.3.89-2.605 1.313-3.915.429-1.308.838-2.624 1.217-3.943l.001-.003a.165.165 0 0 1 .318.087z" fill="#fff"/></g><g opacity=".76"><path d="M65.355 135.799S57.515 53.96 9.99 6.338a1.205 1.205 0 0 0-1.983.42c-4.898 12.96-32.273 96.091 57.348 129.041z" fill="#91B3FA"/><path opacity=".62" d="M13.114 29.971c.811 4.719 1.86 9.405 3.06 14.044 1.182 4.645 2.51 9.251 3.989 13.809a305.593 305.593 0 0 0 2.312 6.803c.386 1.134.817 2.252 1.23 3.376l.627 1.683.657 1.672a201.278 201.278 0 0 0 5.691 13.188c2.045 4.328 4.197 8.61 6.575 12.766.293.521.58 1.047.879 1.565l.919 1.543.918 1.542c.309.513.605 1.033.933 1.534l1.924 3.031.48.759.5.744 1.004 1.489c1.31 2.005 2.747 3.921 4.142 5.867.713.961 1.462 1.895 2.191 2.845l1.101 1.419c.372.469.765.92 1.144 1.384l2.292 2.767 2.392 2.68 1.199 1.34 1.248 1.292 2.493 2.592.003.003a.165.165 0 0 1-.233.233 139.858 139.858 0 0 1-18.672-21.942l-1.028-1.484-.514-.742-.49-.757-1.954-3.036c-.332-.502-.632-1.023-.944-1.537l-.93-1.547-.93-1.547c-.304-.52-.594-1.047-.891-1.57-2.409-4.167-4.59-8.462-6.663-12.803-2.063-4.349-3.928-8.788-5.666-13.273l-.652-1.682-.623-1.693c-.41-1.13-.837-2.255-1.22-3.395-.388-1.138-.798-2.269-1.166-3.413-.364-1.146-.744-2.287-1.095-3.437-2.826-9.192-5.173-18.542-6.558-28.066a.165.165 0 0 1 .325-.052l.001.006z" fill="#fff"/></g><path d="M23.211 11.205c-.68 32.115-2.887 142.893-1.834 182.149.112 4.159 2.962 7.497 6.517 7.633 17.582.673 82.038 2.379 110.797.967 5.99-.294 10.753-5.97 10.877-12.982.598-33.709 1.917-128.52-1.217-171.953-.376-5.203-3.867-9.348-8.309-9.868C120.894 4.911 56.161-.567 31.315 1.32c-4.481.34-7.992 4.634-8.104 9.886z" fill="url(#b)"/><path d="M31.056 21.058c-.946 25.922-3.931 112.157-2.984 144.046.139 4.66 3.279 8.429 7.259 8.702 16.386 1.121 72.29 3.595 96.324 1.343 4.328-.405 7.724-4.499 7.958-9.571 1.217-26.446 4.715-106.743 3.806-138.274-.145-5.03-3.475-9.138-7.76-9.588-17.727-1.862-77.132-6.293-97.555-4.989-3.834.245-6.884 3.843-7.048 8.33z" fill="#7D97F4"/><path d="M75.01 7.69c0 .985.657 1.798 1.498 1.85 4.153.254 15.851.974 21.08 1.328 1.03.07 1.84-1.014 1.644-2.2l-.033-.202c-.134-.81-.708-1.419-1.41-1.494-3.533-.379-14.197-1.43-21.263-1.134-.848.035-1.516.858-1.516 1.852z" fill="url(#c)"/><path d="M83.182 75.425c13.544 0 24.524-10.98 24.524-24.524s-10.98-24.524-24.524-24.524c-13.545 0-24.525 10.98-24.525 24.524 0 13.545 10.98 24.524 24.525 24.524z" fill="url(#d)"/><path d="M90.69 41.634c0 4.153-3.366 8.636-7.519 8.636-4.152 0-7.519-4.483-7.519-8.636 0-4.152 3.367-7.098 7.52-7.098 4.152 0 7.518 2.946 7.518 7.098zM73.84 66.258h18.355a4.443 4.443 0 0 0 4.232-3.09l.987-3.086c.723-2.26-.452-4.708-2.681-5.523-7.47-2.731-15.194-2.38-23.106.252-2.217.738-3.447 3.109-2.835 5.363l.76 2.804a4.443 4.443 0 0 0 4.288 3.28z" fill="#fff"/><g opacity=".71" fill="#fff"><path opacity=".65" d="M130.219 114.591H40.714a.495.495 0 0 1-.495-.495v-12.932c0-.274.222-.495.495-.495h89.505c.274 0 .495.221.495.495v12.932a.495.495 0 0 1-.495.495zM129.731 137.307H40.226a.495.495 0 0 1-.495-.495v-12.933c0-.273.221-.495.495-.495h89.505c.273 0 .495.222.495.495v12.933a.495.495 0 0 1-.495.495zM112.255 164.399H55.017a.61.61 0 0 1-.611-.611V147.26a.61.61 0 0 1 .61-.61h57.239a.61.61 0 0 1 .611.61v16.528a.61.61 0 0 1-.611.611z"/></g><path opacity=".75" d="M97.249 111.557H45.108a.88.88 0 0 1-.88-.879v-5.976a.88.88 0 0 1 .88-.88h52.14a.88.88 0 0 1 .88.88v5.976a.88.88 0 0 1-.88.879z" fill="#fff"/><g opacity=".75" fill="#fff"><path d="M46.1 133.133a3.175 3.175 0 1 0 .001-6.35 3.175 3.175 0 0 0-.001 6.35zM54.813 133.296a3.175 3.175 0 1 0 0-6.35 3.175 3.175 0 0 0 0 6.35zM63.198 133.703a3.175 3.175 0 1 0 .001-6.35 3.175 3.175 0 0 0-.001 6.35zM71.91 133.866a3.175 3.175 0 1 0 .002-6.35 3.175 3.175 0 0 0-.001 6.35zM80.622 133.785a3.176 3.176 0 1 0 0-6.351 3.176 3.176 0 0 0 0 6.351zM89.335 133.948a3.176 3.176 0 1 0 0-6.352 3.176 3.176 0 0 0 0 6.352z"/></g><path d="m125.596 141.138 9.728 2.432-2.432 18.24s3.648 3.648 4.864 8.512c1.216 4.864 2.337 25.288 2.337 25.288l2.308 1.395.281 1.165-6.715 9.03 1.113-7.187c.177-1.141-.129-3.455-.033-3.503-3.648-9.728-11.451-37.132-11.451-37.132v-18.24z" fill="url(#e)"/><path d="M122.753 198.295c.106-.002.209.007.315 0-.47-5.864-2.618-31.675-4.768-41.349-2.432-10.944 3.648-32.833 3.648-32.833l10.944 10.945-6.08 20.672c4.167 6.25-.68 42.851-.575 42.835l-.007.081 1.586 2.182-.193 1.182-9.691 5.719 3.813-6.192a6.948 6.948 0 0 0 1.008-3.242z" fill="url(#f)"/><path d="M135.063 75.576s21.309 24.015 0 36.329l-2.171-1.572s10.579-10.131 0-22.531l2.171-12.227z" fill="url(#g)"/><path d="M117.294 208.626h3.093a1.86 1.86 0 0 0 1.477-.724c.965-1.253 2.962-3.697 3.917-3.761 1.286-.086 1.122 4.485 1.122 4.485h.721l.913-5.68a3.365 3.365 0 0 0-1.765-3.515s-.294 2.174-1.888 3.136c-1.593.961-6.485 4.405-6.485 4.405s-.6-.086-1.257.033c-.976.176-.84 1.621.152 1.621z" fill="url(#h)"/><path d="m135.726 208.274 2.851-1.199a1.862 1.862 0 0 0 1.081-1.241c.403-1.529 1.297-4.557 2.152-4.986 1.152-.578 2.773 3.7 2.773 3.7l.665-.28-1.361-5.59a3.363 3.363 0 0 0-2.99-2.555s.572 2.118-.524 3.622-4.27 6.575-4.27 6.575-.585.154-1.146.518c-.831.541-.145 1.821.769 1.436z" fill="url(#i)"/><path d="M119.161 105.608s.357 2.192-.167 8.218-3.028 20.173-2.518 33.709c0 0 7.12 1.66 19.491.874 0 0 5.22-21.134 3.948-29.169-1.271-8.034-8.17-13.798-8.17-13.798l-12.584.166z" fill="url(#j)"/><path d="m124.422 65.343-.87 10.233h8.268l-2.056-15.62-5.342 5.386z" fill="url(#k)"/><path d="M134.269 74.16c-2.853-.157-9.233-.448-13.753-.202a5.25 5.25 0 0 0-4.86 4.17l-1.102 5.283a12.724 12.724 0 0 0 .179 5.944l4.428 16.253s3.938 2.367 12.584-.166c0 0 7.592-18.106 4.484-29.688a2.151 2.151 0 0 0-1.96-1.594z" fill="url(#l)"/><path d="M115.872 77.18c-1.217 3.209-2.317 6.573-3.499 9.723-.601 1.577-1.211 3.123-1.863 4.542a27.944 27.944 0 0 1-1.024 1.946 8.62 8.62 0 0 1-.903 1.291c-.038.034.09.059.133.06.026.004-.823.14-1.084.184l-1.018-.006c-1.459-.075-3.111-.332-4.768-.654-3.343-.624-6.819-1.499-10.388-2.161l-.027-.005a1.257 1.257 0 0 0-1.06 2.18c1.439 1.267 2.964 2.308 4.546 3.32.796.487 1.607.965 2.43 1.423.84.428 1.683.86 2.557 1.258 1.761.768 3.581 1.475 5.677 1.929.551.092 1.094.189 1.661.265.636.022 1.213.078 1.907.038.369-.037.739-.082 1.109-.136.197-.034.342-.038.58-.104.254-.076.506-.161.755-.255.521-.186.857-.412 1.28-.648.351-.231.671-.473.982-.721 1.145-.976 1.857-1.945 2.484-2.875.625-.93 1.121-1.86 1.566-2.773a37.725 37.725 0 0 0 2.155-5.446c1.146-3.644 1.923-7.225 2.25-11.029a3.311 3.311 0 0 0-6.394-1.463l-.044.117z" fill="url(#m)"/><path d="m92.582 93.74-1.476-3.502-7.765-1.935s-.621 1.346 2.64 1.935c0 0-1.165 1.287-.543 2.802.62 1.514 7.221 3.031 7.144.7z" fill="url(#n)"/><path d="M120.921 53.524c-.295.175-2.621 8.379-.672 11.818 1.949 3.44 7.902-.413 9.515-5.387 1.613-4.974-.979-11.068-8.843-6.43z" fill="url(#o)"/><path d="M136.349 59.955c1.335 6.542 5.759 4.752 8.892 7.662 5.078 4.717 12.343-.146 19.405 4.324 5.099 3.227 7.555 11.483 5.109 18.148-3.389 9.232-14.97 13.029-20.971 10.217-5.736-2.687-4.919-10.736-12.637-13.846-3.276-1.32-4.893-.463-6.856-2.42-3.435-3.426-2.508-10.075-2.151-12.636.775-5.558 2.639-6.564 1.748-9.007-1.732-4.751-9.812-3.771-10.486-7.125-.613-3.054 5.244-8.844 10.755-7.931 8.527 1.411 6.597 9.7 7.192 12.614z" fill="url(#p)"/><path opacity=".6" d="M167.208 88.526a.223.223 0 0 0 .217-.171c1.092-4.532.597-8.25-1.473-11.048-3.434-4.645-10.107-5.104-10.175-5.108-.105-.018-.228.086-.236.209a.223.223 0 0 0 .209.236c.065.004 6.537.453 9.845 4.931 1.986 2.687 2.456 6.28 1.396 10.675a.223.223 0 0 0 .217.276z" fill="#fff"/><path opacity=".72" d="M145.349 92.675a.113.113 0 0 0 .109-.14c-1.064-4.08-2.93-6.914-5.546-8.423-1.903-1.098-3.686-1.2-5.258-1.29-1.516-.087-2.825-.163-3.879-1.1-2.178-1.937-2.052-6.594.375-13.843a.111.111 0 0 0-.071-.141.111.111 0 0 0-.141.07c-2.458 7.342-2.563 12.079-.311 14.081 1.112.989 2.457 1.067 4.015 1.156 1.547.089 3.301.19 5.158 1.26 2.563 1.478 4.394 4.266 5.441 8.287.013.05.059.083.108.083zM133.19 58.332a.112.112 0 0 0 .106-.147c-.845-2.515-3.281-2.142-5.862-1.745-1.633.251-3.322.51-4.754.086-1.069-.317-1.703-.808-1.887-1.46-.313-1.11.784-2.347.795-2.36a.11.11 0 0 0-.008-.157.11.11 0 0 0-.157.008c-.049.055-1.191 1.34-.845 2.57.206.73.892 1.273 2.039 1.613 1.481.438 3.194.175 4.852-.08 2.59-.397 4.83-.742 5.615 1.596.016.047.06.076.106.076z" fill="#fff"/><path d="M157.8 32.927c0-11.512 9.752-20.844 21.455-20.843 11.357.002 20.32 8.842 20.32 19.745 0 10.904-8.963 20.215-20.32 20.813-11.703.617-21.455-8.202-21.455-19.715z" fill="url(#q)"/><path d="M159.757 32.876c0-10.434 8.839-18.891 19.445-18.89 10.293.002 18.416 8.013 18.416 17.895s-8.123 18.32-18.416 18.862c-10.606.559-19.445-7.434-19.445-17.867z" fill="url(#r)"/><path d="M172.902 31.692h-1.742v-6.944a5.405 5.405 0 0 1 4.749-5.361l3.563-.433a5.406 5.406 0 0 1 4.233 1.318 5.405 5.405 0 0 1 1.819 4.043v6.063h-1.742v-6.063a3.66 3.66 0 0 0-4.1-3.632l-3.563.433a3.662 3.662 0 0 0-3.217 3.632v6.944z" fill="#fff"/><path d="m170.645 30.133 15.275-.846c.62-.034 1.142.46 1.142 1.08V42.47c0 .598-.484 1.083-1.082 1.083h-14.909a1.082 1.082 0 0 1-1.081-1.047l-.367-11.256a1.081 1.081 0 0 1 1.022-1.116z" fill="#fff"/><path d="m180.832 40.085-.924-2.658a.89.89 0 0 1 .202-.918 2.51 2.51 0 0 0 .723-1.885 2.527 2.527 0 0 0-2.415-2.397 2.517 2.517 0 0 0-1.684 4.47c.295.24.416.633.291.991l-.833 2.397a.897.897 0 0 0 .847 1.192h2.946a.897.897 0 0 0 .847-1.192z" fill="url(#s)"/><g opacity=".3"><path d="M52.15 186.235a.883.883 0 0 1-.293 1.107c-.78.519-1.595 1.01-2.419 1.46-.4.219-.896.054-1.105-.367l-.007-.015c-.198-.419-.042-.929.355-1.145a30.459 30.459 0 0 0 2.297-1.387.798.798 0 0 1 1.173.347zm-6.409 3.272c.015.03.027.062.038.094.153.448-.068.94-.494 1.099a31.56 31.56 0 0 1-2.665.864c-.437.121-.883-.153-1.001-.613-.116-.46.145-.93.581-1.05.85-.235 1.701-.511 2.533-.822a.806.806 0 0 1 1.008.428zm-6.94 1.708c.041.085.069.18.08.28.054.472-.266.9-.715.955-.92.114-1.857.187-2.784.218-.452.014-.83-.359-.846-.833-.015-.474.34-.871.791-.886.88-.029 1.77-.099 2.644-.207a.813.813 0 0 1 .83.473zm-7.133.033a.896.896 0 0 1 .08.474c-.047.472-.45.813-.9.762a31.468 31.468 0 0 1-2.762-.441c-.444-.092-.734-.544-.648-1.01.086-.466.515-.77.96-.678.864.178 1.747.319 2.623.419.289.033.526.22.647.474zm-6.966-1.638a.898.898 0 0 1 .042.662c-.147.449-.612.688-1.04.533a32.25 32.25 0 0 1-2.6-1.073c-.414-.191-.603-.699-.42-1.134.181-.434.665-.631 1.079-.438.807.375 1.64.718 2.471 1.019a.832.832 0 0 1 .468.431zm-6.45-3.214a.896.896 0 0 1-.036.835.795.795 0 0 1-1.127.278 32.938 32.938 0 0 1-2.311-1.65.888.888 0 0 1-.17-1.203.792.792 0 0 1 1.145-.176c.708.552 1.446 1.08 2.196 1.567.135.088.237.21.303.349zM3.137 159.058c.05.107.08.226.085.352.03.924.1 1.859.207 2.778.055.472-.264.9-.713.956-.449.057-.857-.28-.912-.751a35.926 35.926 0 0 1-.22-2.926c-.015-.475.338-.872.79-.888a.818.818 0 0 1 .763.479zm9.503 22.706a.892.892 0 0 1-.15.986.792.792 0 0 1-1.157.008 33.735 33.735 0 0 1-1.905-2.148.892.892 0 0 1 .09-1.213.793.793 0 0 1 1.155.098c.572.703 1.18 1.389 1.808 2.039.066.069.12.147.16.23zM4.19 166.47a.9.9 0 0 1 .06.162c.226.894.494 1.789.793 2.661.153.448-.068.94-.493 1.1-.426.16-.897-.072-1.048-.52a36.213 36.213 0 0 1-.835-2.801c-.117-.459.143-.93.58-1.051a.808.808 0 0 1 .944.449zm3.961 9.465a.884.884 0 0 1-.292 1.107.798.798 0 0 1-1.131-.265 35.108 35.108 0 0 1-1.4-2.54l-.009-.017c-.197-.418-.042-.927.353-1.143.401-.22.896-.056 1.106.365.41.821.857 1.633 1.33 2.413.016.026.03.053.043.08z" fill="url(#t)"/><path d="M3.454 153.029a.893.893 0 0 1 .077.507c-.061.439-.115.886-.16 1.33-.047.472-.45.814-.9.762-.45-.05-.776-.475-.728-.947.047-.467.103-.937.168-1.398.066-.47.482-.794.929-.724.276.043.5.226.614.47z" fill="url(#u)"/></g><g opacity=".3"><path d="M16.439 130.667a.887.887 0 0 1-.257 1.082c-.344.257-.688.526-1.023.799a.793.793 0 0 1-1.149-.153.887.887 0 0 1 .143-1.206c.352-.288.715-.571 1.076-.842a.795.795 0 0 1 1.143.202.916.916 0 0 1 .067.118z" fill="url(#v)"/><path d="M63.542 143.063c.168.355.33.714.489 1.077.187.432.006.942-.405 1.138a.804.804 0 0 1-1.085-.428 34.14 34.14 0 0 0-1.18-2.449c-.221-.415-.081-.938.313-1.169a.8.8 0 0 1 1.115.332c.26.488.514.993.753 1.499zm2.01 5.33a.88.88 0 0 1 .052.137c.264.919.493 1.861.681 2.797.094.465-.189.921-.63 1.018-.443.097-.88-.201-.972-.666a34.318 34.318 0 0 0-.647-2.657c-.13-.455.115-.934.548-1.07a.807.807 0 0 1 .969.441zm-5.126-10.62a.888.888 0 0 1-.239 1.068.795.795 0 0 1-1.147-.17 32.18 32.18 0 0 0-1.661-2.117.89.89 0 0 1 .061-1.214.792.792 0 0 1 1.157.067c.61.715 1.2 1.465 1.749 2.229.031.044.058.09.08.137zm6.399 17.876a.898.898 0 0 1 .083.322c.065.957.091 1.927.08 2.886-.007.474-.378.853-.83.846-.453-.008-.814-.399-.808-.874a34.287 34.287 0 0 0-.075-2.74c-.033-.473.307-.884.758-.917a.817.817 0 0 1 .792.477zm-11.226-23.234a.894.894 0 0 1-.107.938.792.792 0 0 1-1.154.099 31.614 31.614 0 0 0-2.063-1.682.89.89 0 0 1-.194-1.2.793.793 0 0 1 1.141-.201 32.973 32.973 0 0 1 2.172 1.772.854.854 0 0 1 .205.274zm-5.828-4.12a.9.9 0 0 1-.006.782.799.799 0 0 1-1.105.362 30.983 30.983 0 0 0-2.362-1.171c-.418-.184-.614-.689-.439-1.127.175-.438.655-.642 1.072-.458.84.373 1.677.788 2.486 1.233.16.087.28.222.354.379zm-6.54-2.689a.898.898 0 0 1 .057.606c-.116.458-.566.73-1.002.606a30.049 30.049 0 0 0-2.548-.604c-.445-.085-.741-.532-.661-1 .08-.467.505-.777.95-.692.897.172 1.8.385 2.682.635.236.067.42.236.521.449zm-6.94-1.128c.059.126.09.268.084.418-.018.475-.4.843-.851.822a29.502 29.502 0 0 0-2.61-.002c-.452.019-.834-.35-.854-.824-.02-.475.33-.875.782-.895.911-.04 1.836-.039 2.748.003a.82.82 0 0 1 .7.478zm-7.006.5c.034.07.058.147.072.228.082.468-.212.915-.657 1a29.87 29.87 0 0 0-2.544.601c-.436.124-.886-.149-1.005-.606-.119-.459.139-.931.575-1.055a31.82 31.82 0 0 1 2.678-.633c.367-.07.723.13.881.465zm-6.721 2.102.02.048c.177.438-.017.942-.433 1.127a30.602 30.602 0 0 0-2.36 1.167.8.8 0 0 1-1.106-.364.87.87 0 0 1 .344-1.16 32.836 32.836 0 0 1 2.482-1.229c.401-.177.861.007 1.053.411z" fill="url(#w)"/><path d="M66.542 163.037a.899.899 0 0 1 .076.512c-.067.46-.144.928-.23 1.389-.086.466-.515.77-.96.678-.443-.092-.733-.544-.647-1.01.081-.438.155-.882.218-1.319.068-.469.485-.791.932-.719a.827.827 0 0 1 .61.469z" fill="url(#x)"/></g><path d="M57.547 166.421a.417.417 0 0 0-.086-.458l-3.387-3.367c.42-2.241.503-4.569.211-6.9l3.581-3.114a.415.415 0 0 0 .114-.451l-1.973-5.495a.385.385 0 0 0-.369-.261l-4.653.129a21.004 21.004 0 0 0-4.5-5.044l.43-4.871a.407.407 0 0 0-.223-.404l-5.091-2.429a.37.37 0 0 0-.436.089l-3.197 3.549a19.361 19.361 0 0 0-6.57-.238l-2.974-3.769a.37.37 0 0 0-.43-.12l-5.227 2.058a.402.402 0 0 0-.247.387l.134 4.888a20.653 20.653 0 0 0-4.792 4.714l-4.638-.464a.38.38 0 0 0-.385.234l-2.3 5.341a.418.418 0 0 0 .085.459l3.388 3.366a22.355 22.355 0 0 0-.212 6.9l-3.581 3.114a.415.415 0 0 0-.114.451l1.973 5.495a.383.383 0 0 0 .37.261l4.652-.129a21.004 21.004 0 0 0 4.5 5.045l-.43 4.87a.407.407 0 0 0 .223.404l5.091 2.429a.368.368 0 0 0 .436-.089l3.197-3.549c2.135.447 4.351.539 6.57.238l2.974 3.769a.37.37 0 0 0 .43.12l5.227-2.058a.402.402 0 0 0 .247-.387l-.134-4.888a20.635 20.635 0 0 0 4.792-4.714l4.638.464a.38.38 0 0 0 .385-.234l2.3-5.341z" fill="url(#y)"/><path opacity=".7" d="M39.072 155.811c1.22 2.577.492 5.776-1.82 7.461-2.542 1.852-6.049 1.183-7.818-1.49a6.104 6.104 0 0 1-.92-4.413c.265-1.55 1.089-2.898 2.32-3.795 2.542-1.852 6.048-1.183 7.818 1.491.16.241.3.49.42.746zm-8.889 4.609c.094.199.203.392.326.578 1.356 2.05 4.045 2.563 5.994 1.143 1.948-1.42 2.431-4.243 1.074-6.293s-4.046-2.562-5.994-1.143c-.944.688-1.576 1.722-1.779 2.91a4.694 4.694 0 0 0 .38 2.805z" fill="#fff"/><path opacity=".7" d="M46.283 151.925a15.245 15.245 0 0 1 1.265 4.065l.005.031.014.089.025.172a.347.347 0 0 1-.177.358.325.325 0 0 1-.098.033.332.332 0 0 1-.373-.291 14.484 14.484 0 0 0-.707-2.848c-1.645-4.585-5.373-7.721-9.629-8.668a12.474 12.474 0 0 0-7.322.578c-.425.167-.84.356-1.24.565-2.703 1.406-4.842 3.727-6.101 6.652a14.356 14.356 0 0 0-.32 10.567c2.562 7.137 10.165 10.763 16.95 8.09.419-.164.827-.351 1.225-.558a13.208 13.208 0 0 0 4.436-3.764.315.315 0 0 1 .46-.055.356.356 0 0 1 .053.484 13.882 13.882 0 0 1-4.657 3.952c-.417.217-.846.413-1.285.586-7.125 2.806-15.108-1.007-17.796-8.493a15.072 15.072 0 0 1 .337-11.094c1.322-3.07 3.568-5.507 6.404-6.983.422-.219.856-.417 1.303-.593 3.45-1.359 7.202-1.225 10.563.379 2.927 1.397 5.253 3.762 6.665 6.746z" fill="#fff"/><g opacity=".3"><path d="M83.92 202.489a.55.55 0 0 1-.11.626c-.315.306-.643.606-.975.891a.49.49 0 0 1-.712-.075.548.548 0 0 1 .07-.747c.317-.273.63-.558.93-.85a.49.49 0 0 1 .715.03c.033.039.06.081.081.125z" fill="url(#z)"/><path d="M80.835 204.972a.546.546 0 0 1-.183.685 21.662 21.662 0 0 1-2.36 1.354c-.253.125-.551-.009-.673-.255a.541.541 0 0 1 .241-.706 20.838 20.838 0 0 0 2.252-1.293.493.493 0 0 1 .723.215zm-4.75 2.34a.536.536 0 0 1-.294.741c-.85.294-1.726.534-2.602.714a.51.51 0 0 1-.595-.419.529.529 0 0 1 .398-.623 20.179 20.179 0 0 0 2.483-.681c.242-.083.5.036.61.268zm-5.15 1.06c.028.06.046.128.052.199a.522.522 0 0 1-.469.566 20.69 20.69 0 0 1-2.694.02.523.523 0 0 1-.478-.56.514.514 0 0 1 .532-.501c.853.049 1.717.043 2.568-.019.21-.015.4.108.489.295zm-5.245-.303a.554.554 0 0 1 .046.329.508.508 0 0 1-.587.429 21.08 21.08 0 0 1-2.617-.674.538.538 0 0 1-.334-.665.5.5 0 0 1 .633-.349c.814.266 1.654.482 2.495.642a.51.51 0 0 1 .364.288zm-5.017-1.64a.555.555 0 0 1 .008.455.495.495 0 0 1-.668.265 21.779 21.779 0 0 1-2.383-1.319.547.547 0 0 1-.17-.73.492.492 0 0 1 .694-.178c.73.466 1.494.889 2.273 1.259a.52.52 0 0 1 .246.248zm-4.49-2.867a.554.554 0 0 1-.055.566.49.49 0 0 1-.71.086 22.158 22.158 0 0 1-2.006-1.889.55.55 0 0 1 .005-.751.489.489 0 0 1 .715.006 21.034 21.034 0 0 0 1.912 1.801c.06.051.107.113.14.181zm-3.687-3.93c.106.223.05.5-.144.657a.49.49 0 0 1-.71-.1 23.128 23.128 0 0 1-1.505-2.348.549.549 0 0 1 .18-.727.493.493 0 0 1 .693.19c.434.777.916 1.53 1.435 2.24.02.028.037.057.051.088zm-3.556-7.362a.537.537 0 0 1 .033.087 22.761 22.761 0 0 0 .875 2.538.54.54 0 0 1-.262.698.493.493 0 0 1-.666-.277 23.933 23.933 0 0 1-.917-2.662.534.534 0 0 1 .342-.658.499.499 0 0 1 .595.274z" fill="url(#A)"/></g><g opacity=".3"><path d="M88.382 175.792a.544.544 0 0 1-.221.709.495.495 0 0 1-.681-.232 22.308 22.308 0 0 0-1.288-2.284.551.551 0 0 1 .135-.738.492.492 0 0 1 .702.144 23.418 23.418 0 0 1 1.353 2.401zm1.043 2.49a.561.561 0 0 1 .022.053c.306.868.565 1.764.77 2.663a.53.53 0 0 1-.375.639.507.507 0 0 1-.61-.394 23.077 23.077 0 0 0-.734-2.541.538.538 0 0 1 .299-.682.497.497 0 0 1 .628.262zm-3.942-6.985a.55.55 0 0 1-.12.636.49.49 0 0 1-.713-.052 21.686 21.686 0 0 0-1.776-1.892.55.55 0 0 1-.039-.75.49.49 0 0 1 .715-.039c.654.617 1.28 1.285 1.86 1.983.03.036.054.074.073.114zm5.14 12.267a.555.555 0 0 1 .05.177c.099.92.144 1.855.135 2.78a.516.516 0 0 1-.51.524.522.522 0 0 1-.501-.538 22.916 22.916 0 0 0-.129-2.65.525.525 0 0 1 .446-.586.502.502 0 0 1 .51.293zm-8.986-15.895a.552.552 0 0 1-.037.54.49.49 0 0 1-.704.131 20.587 20.587 0 0 0-2.155-1.389.545.545 0 0 1-.21-.719.494.494 0 0 1 .684-.218c.778.435 1.538.925 2.26 1.455a.537.537 0 0 1 .162.2zm-4.56-2.556a.555.555 0 0 1 .02.428.498.498 0 0 1-.654.303 20.434 20.434 0 0 0-2.408-.808.535.535 0 0 1-.367-.646.502.502 0 0 1 .613-.383 21.18 21.18 0 0 1 2.525.847.511.511 0 0 1 .271.259zm-5.01-1.336a.55.55 0 0 1 .049.303.51.51 0 0 1-.565.459 19.732 19.732 0 0 0-2.521-.178.521.521 0 0 1-.504-.534.517.517 0 0 1 .508-.528 20.75 20.75 0 0 1 2.644.186.51.51 0 0 1 .39.292z" fill="url(#B)"/><path d="M90.569 189.014a.554.554 0 0 1 .048.307c-.057.451-.128.901-.209 1.34a.506.506 0 0 1-.593.418.533.533 0 0 1-.4-.624c.078-.418.145-.848.2-1.278a.51.51 0 0 1 .568-.454.509.509 0 0 1 .386.291z" fill="url(#C)"/></g><path d="M84.533 191.661a.278.278 0 0 0-.058-.306l-2.266-2.253c.28-1.499.336-3.057.141-4.617l2.396-2.084a.278.278 0 0 0 .077-.302l-1.32-3.677a.257.257 0 0 0-.248-.174l-3.113.086a14.072 14.072 0 0 0-3.011-3.376l.288-3.258a.273.273 0 0 0-.15-.271l-3.407-1.626a.248.248 0 0 0-.291.06l-2.14 2.375a12.927 12.927 0 0 0-4.396-.159l-1.99-2.522a.248.248 0 0 0-.287-.081l-3.498 1.378a.268.268 0 0 0-.166.259l.09 3.27a13.842 13.842 0 0 0-3.207 3.154l-3.103-.31a.255.255 0 0 0-.257.157l-1.54 3.574a.278.278 0 0 0 .057.306l2.267 2.253a14.966 14.966 0 0 0-.142 4.618l-2.396 2.083a.278.278 0 0 0-.076.302l1.32 3.677a.257.257 0 0 0 .247.175l3.113-.087a14.054 14.054 0 0 0 3.011 3.376l-.287 3.259c-.01.114.05.222.15.27l3.406 1.626c.1.047.217.023.292-.06l2.14-2.375c1.427.299 2.91.361 4.396.16l1.99 2.522a.25.25 0 0 0 .287.08l3.498-1.377a.27.27 0 0 0 .165-.26l-.09-3.27a13.826 13.826 0 0 0 3.207-3.154l3.104.31a.254.254 0 0 0 .257-.156l1.54-3.575z" fill="url(#D)"/><path opacity=".7" d="M72.234 184.535c.363.768.483 1.634.336 2.493a4.002 4.002 0 0 1-1.58 2.585c-1.73 1.261-4.12.806-5.325-1.015-1.204-1.826-.777-4.33.954-5.591a3.65 3.65 0 0 1 2.86-.65c1.006.191 1.882.783 2.465 1.665.11.165.206.337.29.513zm-5.95 3.084c.061.128.131.253.211.374.887 1.339 2.644 1.674 3.918.746a2.941 2.941 0 0 0 1.162-1.901 3.062 3.062 0 0 0-.46-2.211 2.795 2.795 0 0 0-1.814-1.225 2.689 2.689 0 0 0-2.104.478c-1.158.844-1.524 2.448-.912 3.739z" fill="#fff"/><path opacity=".7" d="M77.256 181.837a10.47 10.47 0 0 1 .886 2.906l.013.09a.537.537 0 0 1-.275.554.484.484 0 0 1-.15.049.512.512 0 0 1-.576-.448 9.35 9.35 0 0 0-.457-1.844 8.884 8.884 0 0 0-2.455-3.671 8.544 8.544 0 0 0-1.952-1.307l-.053-.025a8.087 8.087 0 0 0-6.514-.234c-.275.108-.543.23-.803.365-1.75.911-3.134 2.413-3.95 4.307a9.292 9.292 0 0 0-.207 6.84c.804 2.236 2.387 4.014 4.46 5.004a8.091 8.091 0 0 0 6.514.234 8.64 8.64 0 0 0 .793-.361 8.556 8.556 0 0 0 2.871-2.437.502.502 0 0 1 .171-.145.486.486 0 0 1 .54.06.55.55 0 0 1 .082.747 9.574 9.574 0 0 1-4.1 3.131 9.053 9.053 0 0 1-7.288-.262c-2.319-1.107-4.092-3.093-4.99-5.598a10.394 10.394 0 0 1 .233-7.653c.912-2.119 2.462-3.8 4.419-4.818.29-.151.59-.288.898-.409 4.61-1.816 9.74.383 11.89 4.925z" fill="#fff"/><defs><linearGradient id="p" x1="126.559" y1="50.976" x2="149.32" y2="80.566" gradientUnits="userSpaceOnUse"><stop stop-color="#09005D"/><stop offset="1" stop-color="#1A0F91"/></linearGradient><linearGradient id="a" x1="237.702" y1="271.053" x2="51.443" y2="39.732" gradientUnits="userSpaceOnUse"><stop stop-color="#DAE3FE"/><stop offset="1" stop-color="#E9EFFD"/></linearGradient><linearGradient id="c" x1="75.028" y1="-115.142" x2="82.616" y2="-37.742" gradientUnits="userSpaceOnUse"><stop stop-color="#4F52FF"/><stop offset="1" stop-color="#4042E2"/></linearGradient><linearGradient id="d" x1="58.657" y1="50.901" x2="107.706" y2="50.901" gradientUnits="userSpaceOnUse"><stop stop-color="#4F52FF"/><stop offset="1" stop-color="#4042E2"/></linearGradient><linearGradient id="e" x1="147.379" y1="205.592" x2="119.915" y2="134.889" gradientUnits="userSpaceOnUse"><stop stop-color="#FEBBBA"/><stop offset="1" stop-color="#FF928E"/></linearGradient><linearGradient id="f" x1="147.796" y1="433.012" x2="57.023" y2="-627.906" gradientUnits="userSpaceOnUse"><stop stop-color="#FEBBBA"/><stop offset="1" stop-color="#FF928E"/></linearGradient><linearGradient id="g" x1="144.534" y1="93.74" x2="132.892" y2="93.74" gradientUnits="userSpaceOnUse"><stop stop-color="#FEBBBA"/><stop offset="1" stop-color="#FF928E"/></linearGradient><linearGradient id="h" x1="124.391" y1="207.597" x2="96.698" y2="165.109" gradientUnits="userSpaceOnUse"><stop stop-color="#4F52FF"/><stop offset="1" stop-color="#4042E2"/></linearGradient><linearGradient id="i" x1="149.343" y1="220.536" x2="118.615" y2="167.426" gradientUnits="userSpaceOnUse"><stop stop-color="#4F52FF"/><stop offset="1" stop-color="#4042E2"/></linearGradient><linearGradient id="j" x1="153.964" y1="91.258" x2="129.684" y2="124.138" gradientUnits="userSpaceOnUse"><stop stop-color="#4F52FF"/><stop offset="1" stop-color="#4042E2"/></linearGradient><linearGradient id="k" x1="131.82" y1="67.766" x2="123.552" y2="67.766" gradientUnits="userSpaceOnUse"><stop stop-color="#FEBBBA"/><stop offset="1" stop-color="#FF928E"/></linearGradient><linearGradient id="l" x1="227.902" y1="56.187" x2="194.011" y2="67.316" gradientUnits="userSpaceOnUse"><stop stop-color="#FF928E"/><stop offset="1" stop-color="#FE7062"/></linearGradient><linearGradient id="m" x1="83.31" y1="72.479" x2="154.819" y2="113.445" gradientUnits="userSpaceOnUse"><stop stop-color="#FEBBBA"/><stop offset="1" stop-color="#FF928E"/></linearGradient><linearGradient id="n" x1="76.204" y1="84.882" x2="147.713" y2="125.848" gradientUnits="userSpaceOnUse"><stop stop-color="#FEBBBA"/><stop offset="1" stop-color="#FF928E"/></linearGradient><linearGradient id="o" x1="118.049" y1="67.762" x2="134.116" y2="44.268" gradientUnits="userSpaceOnUse"><stop stop-color="#FEBBBA"/><stop offset="1" stop-color="#FF928E"/></linearGradient><linearGradient id="b" x1="141.645" y1=".284" x2="-80.419" y2="403.172" gradientUnits="userSpaceOnUse"><stop stop-color="#09005D"/><stop offset="1" stop-color="#1A0F91"/></linearGradient><linearGradient id="q" x1="196.682" y1="-34.085" x2="164.626" y2="84.278" gradientUnits="userSpaceOnUse"><stop stop-color="#E1473D"/><stop offset="1" stop-color="#E9605A"/></linearGradient><linearGradient id="r" x1="191.282" y1="-5.101" x2="171.554" y2="53.576" gradientUnits="userSpaceOnUse"><stop stop-color="#FF928E"/><stop offset="1" stop-color="#FE7062"/></linearGradient><linearGradient id="s" x1="184.341" y1="-20.701" x2="175.299" y2="67.048" gradientUnits="userSpaceOnUse"><stop stop-color="#FF928E"/><stop offset="1" stop-color="#FE7062"/></linearGradient><linearGradient id="t" x1="36.24" y1="195.352" x2="14.876" y2="152.298" gradientUnits="userSpaceOnUse"><stop stop-color="#FF928E"/><stop offset="1" stop-color="#FE7062"/></linearGradient><linearGradient id="u" x1="3.273" y1="155.37" x2="2.005" y2="152.813" gradientUnits="userSpaceOnUse"><stop stop-color="#FF928E"/><stop offset="1" stop-color="#FE7062"/></linearGradient><linearGradient id="v" x1="15.619" y1="132.343" x2="14.742" y2="130.574" gradientUnits="userSpaceOnUse"><stop stop-color="#FF928E"/><stop offset="1" stop-color="#FE7062"/></linearGradient><linearGradient id="w" x1="55.517" y1="165.08" x2="33.491" y2="120.691" gradientUnits="userSpaceOnUse"><stop stop-color="#FF928E"/><stop offset="1" stop-color="#FE7062"/></linearGradient><linearGradient id="x" x1="66.323" y1="165.358" x2="65.07" y2="162.832" gradientUnits="userSpaceOnUse"><stop stop-color="#FF928E"/><stop offset="1" stop-color="#FE7062"/></linearGradient><linearGradient id="y" x1="40.142" y1="136.102" x2="22.312" y2="201.352" gradientUnits="userSpaceOnUse"><stop stop-color="#FF928E"/><stop offset="1" stop-color="#FE7062"/></linearGradient><linearGradient id="z" x1="83.304" y1="203.791" x2="82.677" y2="202.528" gradientUnits="userSpaceOnUse"><stop stop-color="#FF928E"/><stop offset="1" stop-color="#FE7062"/></linearGradient><linearGradient id="A" x1="70.248" y1="211.003" x2="58.35" y2="187.024" gradientUnits="userSpaceOnUse"><stop stop-color="#FF928E"/><stop offset="1" stop-color="#FE7062"/></linearGradient><linearGradient id="B" x1="87.655" y1="188.416" x2="73.952" y2="160.801" gradientUnits="userSpaceOnUse"><stop stop-color="#FF928E"/><stop offset="1" stop-color="#FE7062"/></linearGradient><linearGradient id="C" x1="90.489" y1="190.86" x2="89.54" y2="188.947" gradientUnits="userSpaceOnUse"><stop stop-color="#FF928E"/><stop offset="1" stop-color="#FE7062"/></linearGradient><linearGradient id="D" x1="76.465" y1="160.557" x2="58.636" y2="220.495" gradientUnits="userSpaceOnUse"><stop stop-color="#FF928E"/><stop offset="1" stop-color="#FE7062"/></linearGradient></defs></svg>